<mxfile host="65bd71144e">
    <diagram id="Xq5SjVAaNZYUVjqVh8gm" name="Page-1">
        <mxGraphModel dx="979" dy="672" grid="1" gridSize="10" guides="1" tooltips="1" connect="1" arrows="1" fold="1" page="1" pageScale="1" pageWidth="850" pageHeight="1100" math="0" shadow="0">
            <root>
                <mxCell id="0"/>
                <mxCell id="1" parent="0"/>
                <mxCell id="68" value="Advisor" style="swimlane;childLayout=stackLayout;resizeParent=1;resizeParentMax=0;startSize=20;html=1;" vertex="1" parent="1">
                    <mxGeometry x="230" y="50" width="820" height="470" as="geometry"/>
                </mxCell>
                <mxCell id="69" value="Controller" style="swimlane;startSize=20;html=1;" vertex="1" parent="68">
                    <mxGeometry y="20" width="200" height="450" as="geometry"/>
                </mxCell>
                <mxCell id="70" style="edgeStyle=orthogonalEdgeStyle;html=1;" edge="1" parent="69" source="71" target="74">
                    <mxGeometry relative="1" as="geometry">
                        <mxPoint x="54.99999999999977" y="149.9999999999999" as="targetPoint"/>
                    </mxGeometry>
                </mxCell>
                <mxCell id="71" value="Initialize" style="rounded=0;whiteSpace=wrap;html=1;" vertex="1" parent="69">
                    <mxGeometry x="50" y="40" width="100" height="40" as="geometry"/>
                </mxCell>
                <mxCell id="72" value="ExportSpreadsheet" style="rounded=0;whiteSpace=wrap;html=1;" vertex="1" parent="69">
                    <mxGeometry x="40" y="265" width="120" height="40" as="geometry"/>
                </mxCell>
                <mxCell id="73" style="edgeStyle=orthogonalEdgeStyle;html=1;" edge="1" parent="69" source="74" target="72">
                    <mxGeometry relative="1" as="geometry">
                        <mxPoint x="54.99999999999977" y="190" as="sourcePoint"/>
                        <Array as="points"/>
                    </mxGeometry>
                </mxCell>
                <mxCell id="74" value="GenerateOverview(CurrentYear)" style="rounded=0;whiteSpace=wrap;html=1;" vertex="1" parent="69">
                    <mxGeometry x="10" y="160" width="180" height="40" as="geometry"/>
                </mxCell>
                <mxCell id="75" value="Business Logic" style="swimlane;startSize=20;html=1;" vertex="1" parent="68">
                    <mxGeometry x="200" y="20" width="330" height="450" as="geometry"/>
                </mxCell>
                <mxCell id="80" style="edgeStyle=orthogonalEdgeStyle;html=1;" edge="1" parent="75" source="134" target="91">
                    <mxGeometry relative="1" as="geometry">
                        <Array as="points">
                            <mxPoint x="180" y="180"/>
                            <mxPoint x="180" y="180"/>
                        </Array>
                        <mxPoint x="94.99999999999955" y="190" as="sourcePoint"/>
                    </mxGeometry>
                </mxCell>
                <mxCell id="82" style="edgeStyle=orthogonalEdgeStyle;html=1;" edge="1" parent="75" source="134" target="88">
                    <mxGeometry relative="1" as="geometry">
                        <Array as="points">
                            <mxPoint x="100" y="240"/>
                        </Array>
                        <mxPoint x="94.99999999999955" y="190" as="sourcePoint"/>
                    </mxGeometry>
                </mxCell>
                <mxCell id="84" style="edgeStyle=orthogonalEdgeStyle;html=1;" edge="1" parent="75" source="134" target="95">
                    <mxGeometry relative="1" as="geometry">
                        <Array as="points">
                            <mxPoint x="100" y="300"/>
                        </Array>
                        <mxPoint x="94.99999999999955" y="130" as="sourcePoint"/>
                    </mxGeometry>
                </mxCell>
                <mxCell id="85" style="edgeStyle=orthogonalEdgeStyle;html=1;" edge="1" parent="75" source="134" target="96">
                    <mxGeometry relative="1" as="geometry">
                        <Array as="points">
                            <mxPoint x="100" y="360"/>
                        </Array>
                        <mxPoint x="94.99999999999955" y="130" as="sourcePoint"/>
                    </mxGeometry>
                </mxCell>
                <mxCell id="98" style="edgeStyle=orthogonalEdgeStyle;html=1;" edge="1" parent="75" source="134" target="97">
                    <mxGeometry relative="1" as="geometry">
                        <Array as="points">
                            <mxPoint x="100" y="420"/>
                        </Array>
                        <mxPoint x="94.99999999999955" y="130" as="sourcePoint"/>
                    </mxGeometry>
                </mxCell>
                <mxCell id="78" style="edgeStyle=orthogonalEdgeStyle;html=1;" edge="1" parent="75" source="134" target="93">
                    <mxGeometry relative="1" as="geometry">
                        <mxPoint x="180" y="170" as="sourcePoint"/>
                        <Array as="points">
                            <mxPoint x="100" y="60"/>
                        </Array>
                    </mxGeometry>
                </mxCell>
                <mxCell id="79" style="edgeStyle=orthogonalEdgeStyle;html=1;" edge="1" parent="75" source="134" target="90">
                    <mxGeometry relative="1" as="geometry">
                        <Array as="points">
                            <mxPoint x="100" y="120"/>
                        </Array>
                        <mxPoint x="94.99999999999955" y="190" as="sourcePoint"/>
                    </mxGeometry>
                </mxCell>
                <mxCell id="88" value="SelectPrice" style="rounded=0;whiteSpace=wrap;html=1;" vertex="1" parent="75">
                    <mxGeometry x="209.99999999999955" y="220" width="100" height="40" as="geometry"/>
                </mxCell>
                <mxCell id="90" value="SelectDevice" style="rounded=0;whiteSpace=wrap;html=1;" vertex="1" parent="75">
                    <mxGeometry x="209.99999999999955" y="100" width="100" height="40" as="geometry"/>
                </mxCell>
                <mxCell id="91" value="SelectYield" style="rounded=0;whiteSpace=wrap;html=1;" vertex="1" parent="75">
                    <mxGeometry x="209.99999999999955" y="160" width="100" height="40" as="geometry"/>
                </mxCell>
                <mxCell id="93" value="SelectPeriod" style="rounded=0;whiteSpace=wrap;html=1;" vertex="1" parent="75">
                    <mxGeometry x="209.99999999999955" y="40" width="100" height="40" as="geometry"/>
                </mxCell>
                <mxCell id="95" value="CalculateRevenue" style="rounded=0;whiteSpace=wrap;html=1;" vertex="1" parent="75">
                    <mxGeometry x="209.99999999999955" y="280" width="100" height="40" as="geometry"/>
                </mxCell>
                <mxCell id="96" value="CalculatePrediction" style="rounded=0;whiteSpace=wrap;html=1;" vertex="1" parent="75">
                    <mxGeometry x="209.99999999999955" y="340" width="100" height="40" as="geometry"/>
                </mxCell>
                <mxCell id="97" value="GenerateSpreadsheet" style="rounded=0;whiteSpace=wrap;html=1;" vertex="1" parent="75">
                    <mxGeometry x="200" y="400" width="120" height="40" as="geometry"/>
                </mxCell>
                <mxCell id="134" value="GenerateOverview(CurrentYear)" style="rounded=0;whiteSpace=wrap;html=1;" vertex="1" parent="75">
                    <mxGeometry x="10" y="160" width="180" height="40" as="geometry"/>
                </mxCell>
                <mxCell id="99" value="Repository" style="swimlane;startSize=20;html=1;" vertex="1" parent="68">
                    <mxGeometry x="530" y="20" width="140" height="450" as="geometry"/>
                </mxCell>
                <mxCell id="102" value="SelectPrice" style="rounded=0;whiteSpace=wrap;html=1;" vertex="1" parent="99">
                    <mxGeometry x="19.999999999999545" y="220" width="100" height="40" as="geometry"/>
                </mxCell>
                <mxCell id="103" value="SelectDevice" style="rounded=0;whiteSpace=wrap;html=1;" vertex="1" parent="99">
                    <mxGeometry x="19.999999999999545" y="100" width="100" height="40" as="geometry"/>
                </mxCell>
                <mxCell id="104" value="SelectYield" style="rounded=0;whiteSpace=wrap;html=1;" vertex="1" parent="99">
                    <mxGeometry x="19.999999999999545" y="160" width="100" height="40" as="geometry"/>
                </mxCell>
                <mxCell id="106" value="SelectPeriod" style="rounded=0;whiteSpace=wrap;html=1;" vertex="1" parent="99">
                    <mxGeometry x="19.999999999999545" y="40" width="100" height="40" as="geometry"/>
                </mxCell>
                <mxCell id="107" value="Model" style="swimlane;startSize=20;html=1;" vertex="1" parent="68">
                    <mxGeometry x="670" y="20" width="150" height="450" as="geometry"/>
                </mxCell>
                <mxCell id="110" value="Period" style="swimlane;fontStyle=0;childLayout=stackLayout;horizontal=1;startSize=30;horizontalStack=0;resizeParent=1;resizeParentMax=0;resizeLast=0;collapsible=1;marginBottom=0;whiteSpace=wrap;html=1;fontSize=12;" vertex="1" parent="107">
                    <mxGeometry x="10" y="40" width="130" height="40" as="geometry"/>
                </mxCell>
                <mxCell id="111" value="Device" style="swimlane;fontStyle=0;childLayout=stackLayout;horizontal=1;startSize=30;horizontalStack=0;resizeParent=1;resizeParentMax=0;resizeLast=0;collapsible=1;marginBottom=0;whiteSpace=wrap;html=1;fontSize=12;" vertex="1" parent="107">
                    <mxGeometry x="10" y="100" width="130" height="40" as="geometry"/>
                </mxCell>
                <mxCell id="112" value="Yield" style="swimlane;fontStyle=0;childLayout=stackLayout;horizontal=1;startSize=30;horizontalStack=0;resizeParent=1;resizeParentMax=0;resizeLast=0;collapsible=1;marginBottom=0;whiteSpace=wrap;html=1;fontSize=12;" vertex="1" parent="107">
                    <mxGeometry x="10" y="160" width="130" height="40" as="geometry"/>
                </mxCell>
                <mxCell id="114" value="Price" style="swimlane;fontStyle=0;childLayout=stackLayout;horizontal=1;startSize=30;horizontalStack=0;resizeParent=1;resizeParentMax=0;resizeLast=0;collapsible=1;marginBottom=0;whiteSpace=wrap;html=1;fontSize=12;" vertex="1" parent="107">
                    <mxGeometry x="10" y="220" width="130" height="40" as="geometry"/>
                </mxCell>
                <mxCell id="117" style="edgeStyle=orthogonalEdgeStyle;html=1;" edge="1" parent="68" source="106" target="93">
                    <mxGeometry relative="1" as="geometry"/>
                </mxCell>
                <mxCell id="118" style="edgeStyle=orthogonalEdgeStyle;html=1;" edge="1" parent="68" source="103" target="90">
                    <mxGeometry relative="1" as="geometry"/>
                </mxCell>
                <mxCell id="119" style="edgeStyle=orthogonalEdgeStyle;html=1;" edge="1" parent="68" source="104" target="91">
                    <mxGeometry relative="1" as="geometry"/>
                </mxCell>
                <mxCell id="121" style="edgeStyle=orthogonalEdgeStyle;html=1;" edge="1" parent="68" source="102" target="88">
                    <mxGeometry relative="1" as="geometry"/>
                </mxCell>
                <mxCell id="122" style="edgeStyle=orthogonalEdgeStyle;html=1;" edge="1" parent="68" source="74" target="134">
                    <mxGeometry relative="1" as="geometry">
                        <mxPoint x="150" y="190" as="sourcePoint"/>
                        <mxPoint x="210" y="190" as="targetPoint"/>
                        <Array as="points"/>
                    </mxGeometry>
                </mxCell>
                <mxCell id="123" style="edgeStyle=orthogonalEdgeStyle;html=1;" edge="1" parent="68" source="114" target="102">
                    <mxGeometry relative="1" as="geometry"/>
                </mxCell>
                <mxCell id="125" style="edgeStyle=orthogonalEdgeStyle;html=1;" edge="1" parent="68" source="112" target="104">
                    <mxGeometry relative="1" as="geometry"/>
                </mxCell>
                <mxCell id="126" style="edgeStyle=orthogonalEdgeStyle;html=1;" edge="1" parent="68" source="111" target="103">
                    <mxGeometry relative="1" as="geometry"/>
                </mxCell>
                <mxCell id="127" style="edgeStyle=orthogonalEdgeStyle;html=1;" edge="1" parent="68" source="110" target="106">
                    <mxGeometry relative="1" as="geometry"/>
                </mxCell>
                <mxCell id="130" style="edgeStyle=none;html=1;" edge="1" parent="1" source="131" target="71">
                    <mxGeometry relative="1" as="geometry"/>
                </mxCell>
                <mxCell id="131" value="Advisor" style="shape=umlActor;verticalLabelPosition=bottom;verticalAlign=top;html=1;outlineConnect=0;" vertex="1" parent="1">
                    <mxGeometry x="180" y="100" width="30" height="60" as="geometry"/>
                </mxCell>
                <mxCell id="132" value="" style="ellipse;fillColor=strokeColor;" vertex="1" parent="1">
                    <mxGeometry x="180" y="340" width="30" height="30" as="geometry"/>
                </mxCell>
                <mxCell id="133" style="edgeStyle=orthogonalEdgeStyle;html=1;" edge="1" parent="1" source="72" target="132">
                    <mxGeometry relative="1" as="geometry"/>
                </mxCell>
            </root>
        </mxGraphModel>
    </diagram>
</mxfile>